<svg xmlns="http://www.w3.org/2000/svg" width="128" height="128" viewBox="0 0 128 128" fill="none">
  <defs>
    <linearGradient id="g" x1="0" y1="0" x2="1" y2="1">
      <stop offset="0%" stop-color="#2c6e49"/>
      <stop offset="100%" stop-color="#ffb703"/>
    </linearGradient>
  </defs>
  <rect width="128" height="128" rx="28" fill="url(#g)"/>
  <g transform="translate(20,28)" fill="#fff">
    <path d="M16 50c-6 0-10-6-10-12 0-9 7-24 28-24h26c18 0 22 12 22 18 0 9-7 18-18 18H64c-1 6-6 10-12 10H36c-6 0-10-4-10-10Z" opacity="0.95"/>
    <circle cx="66" cy="36" r="4" fill="#222"/>
    <circle cx="54" cy="36" r="2" fill="#222"/>
  </g>
  <text x="64" y="118" text-anchor="middle" font-family="Poppins, Arial, sans-serif" font-size="14" fill="#ffffff" opacity="0.95">Capy's Foods</text>
</svg>
